inDegrees=no
num_controls=7
num_derivatives=13
num_iterations=133
num_multipliers=7
num_parameters=0
num_slacks=7
num_states=26
objective=6.062668
objective_accelerations=1.002513
objective_balance=0.086858
objective_effort=0.696905
objective_height=4.181484
objective_ligament=0.094908
solver_duration=1374.724554
status=Solve_Succeeded
success=true
DataType=double
version=3
OpenSimVersion=4.4-2022-07-23-0e9fedc
endheader
time	/jointset/ground_pelvis/pelvis_tilt/value	/jointset/ground_pelvis/pelvis_tx/value	/jointset/ground_pelvis/pelvis_ty/value	/jointset/hip_l/hip_flexion_l/value	/jointset/hip_l/hip_adduction_l/value	/jointset/hip_l/hip_rotation_l/value	/jointset/back/lumbar_extension/value	/jointset/patellofemoral_l/patellar_flexion_l/value	/jointset/knee_l/knee_flexion_l/value	/jointset/knee_l/knee_adduction_l/value	/jointset/knee_l/knee_rotation_l/value	/jointset/ankle_l/ankle_angle_l/value	/jointset/subtalar_l/subtalar_angle_l/value	/jointset/ground_pelvis/pelvis_tilt/speed	/jointset/ground_pelvis/pelvis_tx/speed	/jointset/ground_pelvis/pelvis_ty/speed	/jointset/hip_l/hip_flexion_l/speed	/jointset/hip_l/hip_adduction_l/speed	/jointset/hip_l/hip_rotation_l/speed	/jointset/back/lumbar_extension/speed	/jointset/patellofemoral_l/patellar_flexion_l/speed	/jointset/knee_l/knee_flexion_l/speed	/jointset/knee_l/knee_adduction_l/speed	/jointset/knee_l/knee_rotation_l/speed	/jointset/ankle_l/ankle_angle_l/speed	/jointset/subtalar_l/subtalar_angle_l/speed	/forceset/tau_hip_flexion_l	/forceset/tau_hip_adduction_l	/forceset/tau_hip_rotation_l	/forceset/tau_knee_flexion_l	/forceset/tau_ankle_angle_l	/forceset/tau_subtalar_angle_l	/forceset/tau_lumbar_extension	lambda_cid13_p0	lambda_cid13_p1	lambda_cid13_p2	lambda_cid13_p3	lambda_cid13_p4	lambda_cid13_p5	lambda_cid14_p0	/jointset/ground_pelvis/pelvis_tilt/accel	/jointset/ground_pelvis/pelvis_tx/accel	/jointset/ground_pelvis/pelvis_ty/accel	/jointset/hip_l/hip_flexion_l/accel	/jointset/hip_l/hip_adduction_l/accel	/jointset/hip_l/hip_rotation_l/accel	/jointset/back/lumbar_extension/accel	/jointset/patellofemoral_l/patellar_flexion_l/accel	/jointset/knee_l/knee_flexion_l/accel	/jointset/knee_l/knee_adduction_l/accel	/jointset/knee_l/knee_rotation_l/accel	/jointset/ankle_l/ankle_angle_l/accel	/jointset/subtalar_l/subtalar_angle_l/accel	gamma_cid13_p0	gamma_cid13_p1	gamma_cid13_p2	gamma_cid13_p3	gamma_cid13_p4	gamma_cid13_p5	gamma_cid14_p0
0	-0.03677951462528112	0.05665876077952377	0.9203423593500294	0.3085811930696054	-0.2956282836104956	-0.3013370403835731	-0.3879500408040475	0.2499276582271594	0.249927658227084	-0.1745328409377659	-0.1742678899297656	-0.0008036543073733089	0.0004467745915305333	0	0	0	0	0	0	0	0	0	0	0	0	0	0.1219407460477519	-0.05912111695038218	-0.02372310386100142	-0.273380921480997	0.2117696423317447	-0.03202203765122405	-0.04911064141568507	25.77263822687446	6.945280800221667	1.236100780767636	17.68672869310421	-584.1531478964058	-64.59994863509361	-23.18789362496121	-2.506194902052605	-2.995167369261612	-1.517700658434036	15.60930853953446	-1.123978978689008	5.193635282473982	-9.019124553174722	15.04348306210518	15.04348306210995	2.506349837524097	-0.1426735865880034	2.909502731777794	-0.2226302015367935	4.100212673249208e-09	4.538281524989713e-07	1.269281854903012e-07	-1.079663161225677e-08	3.120632553918766e-07	1.924900164479148e-08	2.387096548926961e-08
0.01	-0.03689802245113066	0.05651121197930669	0.9202680731415014	0.3093430479420035	-0.2956848339467597	-0.3010758709311949	-0.3883997354712641	0.2506661095766363	0.2506661095765879	-0.1744132039674814	-0.1742695310425331	-0.0006609823369545958	0.0004342907686223072	-0.02355337481871126	-0.0293108135547798	-0.01480592658283026	0.1515512817903245	-0.01124189369274015	0.05196729985379614	-0.08922039662008582	0.1470034883368581	0.1470034883368631	0.02380841980562088	-0.0003289622738876343	0.02847998403155068	-0.00244286781306743	0.1123332948692975	-0.06959090439595632	-0.02236640149133798	-0.2648123936118961	0.1983955031021992	-0.01571558320624786	-0.04034295786262484	21.94132716423616	0.5935213418003824	2.181011603636386	17.64390946226002	-587.955029800272	-77.07099934914592	-23.19634454783631	-2.257700678704638	-2.869198540569849	-1.454278977208389	14.80506909902436	-1.114164771157306	5.158293505723942	-8.765716688676331	14.42575971269672	14.42575971269429	2.300334473103346	0.02188711608709077	2.809095651398489	-0.2471174580262909	-5.908924861601308e-08	4.831714842994392e-07	2.973909465904138e-07	5.552333224068094e-08	6.307255945678127e-08	-9.288949458623135e-08	1.006254050455079e-08
0.02	-0.0372476224066426	0.05607652300513828	0.9200472796033423	0.3115958218523528	-0.2958517772612582	-0.3003030252464801	-0.3897200779991469	0.2528539914081152	0.2528539914081115	-0.1740590335147988	-0.1742744828452355	-0.0002351406437064799	0.000398977790216725	-0.04621842591390553	-0.05742803479026536	-0.02930146592623054	0.2981838075903447	-0.02207859564904352	0.1023352464632396	-0.1741295721298557	0.2898860964025236	0.2898860964025112	0.04690669645210262	-0.0006621379927317084	0.05663394456526695	-0.004565831099534339	0.1027258436911153	-0.08006069184172915	-0.02100969912152349	-0.256243865742824	0.1850213638725686	0.0005908712384930547	-0.03157527430918491	18.23023248288241	-5.776500849080193	3.12565093329882	17.43223258928398	-589.9485325909817	-89.39843726339862	-23.22107087844914	-2.328530157346648	-2.756448905404891	-1.45562321054807	14.62555734147382	-1.042940631401599	4.873764633603302	-8.156880331109994	14.219307007867	14.21930700786732	2.364321205696482	-0.1435162755796121	2.844298032208548	-0.1586492962174552	-1.222787099052754e-07	5.12514816099907e-07	4.678537076905264e-07	1.218432960936187e-07	-1.85918136478314e-07	-2.050279908172542e-07	-3.745884480168041e-09
0.03	-0.03782024239409751	0.05536673313583798	0.919682484133495	0.3152913685460261	-0.2961246962217603	-0.2990354967801511	-0.3918681673394278	0.2564501948638704	0.2564501948637307	-0.1734773500629937	-0.1742834158647635	0.0004704779223314407	0.0003443571579566731	-0.0681877540002848	-0.08432065586990417	-0.04365623992681578	0.4401399045897043	-0.03241991019254091	0.1508993193194539	-0.2548499397493452	0.428656078765525	0.4286560787655006	0.0692718733583861	-0.001100794669075484	0.08442034489599379	-0.006293772166404027	0.09497106208742657	-0.07231874720601189	-0.02019721038207398	-0.2513182505387871	0.1827808456159818	-0.002797395752868567	-0.02448727371621814	17.39722679433685	-4.226659062562629	2.955706138193009	16.39505287682012	-590.964355992067	-84.99609920297722	-23.2606665365934	-2.113478873289493	-2.624251598386024	-1.425234467070919	13.86276880701537	-1.01708131171756	4.807013967013143	-7.933861547026644	13.60106726083627	13.60106726083384	2.149034563367221	0.009573748746883496	2.735403851327888	-0.170322831925884	-1.672971654673243e-07	4.312604433052167e-07	5.897285786788718e-07	1.602604445103747e-07	-3.721638968969502e-07	-3.044871460653669e-07	-2.416137888011591e-08
0.04	-0.03860902461030105	0.05439430047790585	0.9191741749291877	0.3203829027952945	-0.296498499216886	-0.2972904705141978	-0.3948043096698473	0.2614131428251981	0.2614131428251923	-0.1726767311161465	-0.1742960126287201	0.001451879055239891	0.0002743658510271639	-0.08945087164649976	-0.1099565925166332	-0.05800421281822899	0.5773813187029219	-0.04225540257177481	0.1978348063909579	-0.3317401701548312	0.5632349975412998	0.5632349975412619	0.09069379547558704	-0.001394886849063007	0.111790457939632	-0.007639966033443852	0.08721628048439495	-0.0645768025703059	-0.01938472164147164	-0.2463926353346078	0.1805403273594665	-0.006185662744232146	-0.01739927312275766	16.67252498318105	-2.689295239809882	2.780342506394348	15.19283985694173	-590.3712230964427	-80.45298283885627	-23.31319823525575	-2.187288069311141	-2.50511201882499	-1.454262988713697	13.68262076424568	-0.9417761985487519	4.54804747666114	-7.390852888307683	13.38109429042203	13.38109429042204	2.175670247880287	-0.1146033763086108	2.761040574788551	-0.0822998562521621	-2.11940961117472e-07	3.477257054673271e-07	7.106016374999643e-07	1.981022771449415e-07	-5.571159473049376e-07	-4.036848716024917e-07	-4.471310151542934e-08
0.05	-0.03960742713071181	0.05317171784083548	0.9185219149493558	0.3268245349237899	-0.2969678691445086	-0.2950855211282584	-0.398489705364741	0.2677016966458833	0.2677016966459025	-0.171666311303605	-0.1743120538725489	0.002704888913963724	0.0001930851923872619	-0.1100970222678708	-0.1343562885664276	-0.07248363467952912	0.7101727159321423	-0.05151759452817237	0.2428731849790392	-0.4047261210326319	0.69378608254207	0.6937860825420572	0.1112159615020355	-0.001783955494758201	0.1387243422572853	-0.008542655630851178	0.07858951725824551	-0.06296646983530209	-0.01828110535726394	-0.2407220910882419	0.1745709545444033	-0.003111849331463376	-0.01002315206574197	15.01729864768172	-3.749177000065132	2.9661562235981	14.5152811990441	-589.3235881609843	-81.29494741686226	-23.37621561853461	-1.983398407421842	-2.376811527678048	-1.450272432389	12.96151560209189	-0.9034432428752808	4.439358952074564	-7.160539015268878	12.78867210588806	12.78867210589162	1.964490100533604	0.003464328972818332	2.646485484431284	-0.08336258405267924	-2.317016643502736e-07	2.528819813469969e-07	7.557410719598272e-07	2.138192406945636e-07	-6.531679642571795e-07	-4.517202699465602e-07	-5.802647801479353e-08
0.06	-0.04080831512718966	0.05171125561733644	0.9177237626213987	0.3345709043045021	-0.2975268615014253	-0.2924386627759867	-0.402886575133983	0.2752750726168121	0.2752750726168094	-0.1704558697666466	-0.1743310812152058	0.004224622240698943	0.0001049558232595928	-0.1299479668437158	-0.1575325098023664	-0.08718268244328566	0.8383287691545779	-0.06017988843214245	0.2862165996548439	-0.4740349850202232	0.8201994275821749	0.8201994275821878	0.1306981403487396	-0.001992106633548288	0.1651351515420202	-0.009009708130972275	0.06996275403210415	-0.06135613710037315	-0.01717748907345171	-0.2350515468418683	0.1686015817293084	-3.803591877671117e-05	-0.002647031008648696	13.45386284767179	-4.822504634092349	3.151114422648928	13.68512841191788	-586.9118080195414	-82.02040897890545	-23.44688784422462	-2.028246860203371	-2.260417056055854	-1.498188169205015	12.75555196288898	-0.8217965880631375	4.209054694205764	-6.655435510264282	12.55354629828935	12.55354629828944	1.967672811931735	-0.07841987492777809	2.656425568202695	0.004827563204441369	-2.504146584286605e-07	1.575620893831956e-07	7.976917222360593e-07	2.286046308090302e-07	-7.454768219060215e-07	-4.976014650403946e-07	-7.103508204527564e-08
0.07000000000000001	-0.04220451589327603	0.05002521189200282	0.916777111387425	0.343577130788877	-0.2981692075897105	-0.2893678206524011	-0.4079574726040007	0.2840928115327665	0.2840928115328628	-0.1690552823787624	-0.1743523024103634	0.006006111124332724	1.470721643983706e-05	-0.1491619473626	-0.1794631303205369	-0.1022101033234776	0.9621512256777892	-0.06817793439637741	0.3276583918648276	-0.5395476130975438	0.9426616682513522	0.9426616682512945	0.149233606046818	-0.002223149786632296	0.191073773803048	-0.0089566441422681	0.061455843970088	-0.05801809010903126	-0.01615259690696226	-0.2305046477983582	0.1645313446297879	0.0009308523385036062	0.004520079177694118	12.42112474852192	-5.076209181903881	3.207257441221095	12.66780644176626	-584.447648422843	-80.98590218387312	-23.52198061932973	-1.84844301112345	-2.127372913313612	-1.514550107617495	12.08077462901301	-0.7722299437636879	4.06761298007369	-6.409642070309324	11.98957421097349	11.98957421096269	1.768728683300712	0.009034685656918574	2.549245736027745	0.01793657916320595	-2.555773780412699e-07	-1.558379156309316e-08	7.973421312390768e-07	2.206469354563618e-07	-7.814155239217417e-07	-5.305637952461242e-07	-8.857152164377108e-08
